<?xml version="1.0" encoding="UTF-8" standalone="no"?>
<!DOCTYPE svg PUBLIC "-//W3C//DTD SVG 1.1//EN" "http://www.w3.org/Graphics/SVG/1.1/DTD/svg11.dtd">
<svg viewBox="0 0 1455 1020" width="291mm" height="204mm" xmlns="http://www.w3.org/2000/svg" xmlns:xlink="http://www.w3.org/1999/xlink"><defs><filter id="dropshadow" height="130%"><feGaussianBlur in="SourceAlpha" stdDeviation="3"></feGaussianBlur><feOffset dx="1" dy="1" result="offsetblur"></feOffset><feMerge><feMergeNode></feMergeNode><feMergeNode in="SourceGraphic"></feMergeNode></feMerge></filter></defs><g><polyline points="1053,856 1453,856 1453,1018 1053,1018 1053,856" style="stroke: black; stroke-width: 1; fill: none;"></polyline><line x1="1053" y1="892" x2="1453" y2="892" style="stroke: black; stroke-width: 1; fill: none;"></line><line x1="1053" y1="946" x2="1453" y2="946" style="stroke: black; stroke-width: 1; fill: none;"></line><line x1="1053" y1="982" x2="1453" y2="982" style="stroke: black; stroke-width: 1; fill: none;"></line><line x1="1373" y1="946" x2="1373" y2="982" style="stroke: black; stroke-width: 1; fill: none;"></line><line x1="1186.3333333333333" y1="982" x2="1186.3333333333333" y2="1018" style="stroke: black; stroke-width: 1; fill: none;"></line><line x1="1373" y1="982" x2="1373" y2="1018" style="stroke: black; stroke-width: 1; fill: none;"></line><text x="1062" y="867.5" style="font-size: 13px; font-family: Arial; white-space: pre;">Title</text><text x="1062" y="903.5" style="font-size: 13px; font-family: Arial; white-space: pre;">Author</text><text x="1062" y="957.5" style="font-size: 13px; font-family: Arial; white-space: pre;">File</text><text x="1062" y="993.5" style="font-size: 13px; font-family: Arial; white-space: pre;">Revision</text><text x="1382" y="957.5" style="font-size: 13px; font-family: Arial; white-space: pre;">Document</text><text x="1195.3333333333333" y="993.5" style="font-size: 13px; font-family: Arial; white-space: pre;">Date</text><text x="1382" y="993.5" style="font-size: 13px; font-family: Arial; white-space: pre;">Sheets</text><text x="1071" y="885.5" style="font-size: 13px; font-family: Arial; white-space: pre;">command-reference</text><text x="1071" y="921.5" style="font-size: 13px; font-family: Arial; white-space: pre;">David Vandensteen</text><text x="1071" y="939.5" style="font-size: 13px; font-family: Arial; white-space: pre;"></text><text x="1071" y="1011.5" style="font-size: 13px; font-family: Arial; white-space: pre;">1.0.0</text><text x="1391" y="975.5" style="font-size: 13px; font-family: Arial; white-space: pre;"></text><text x="1391" y="1011.5" style="font-size: 13px; font-family: Arial; white-space: pre;">1 of 1</text><text x="1071" y="975.5" style="font-size: 13px; font-family: Arial; white-space: pre;"></text><text x="1204.3333333333333" y="1011.5" style="font-size: 13px; font-family: Arial; white-space: pre;">18/06/25</text><g transform="rotate(270 145,295)"><line x1="145" y1="295" x2="155" y2="295" stroke-linecap="round"></line><g style="fill: none; stroke: black; stroke-width: 1;"><g style="stroke: rgb(192, 64, 64);"><line x1="145" y1="295" x2="155" y2="295" stroke-linecap="round"></line></g><g style="stroke-width: 0.6;"></g></g></g><g transform="rotate(90 145,245)"><line x1="145" y1="245" x2="155" y2="245" stroke-linecap="round"></line><g style="fill: none; stroke: black; stroke-width: 1;"><g style="stroke: rgb(192, 64, 64);"><line x1="145" y1="245" x2="155" y2="245" stroke-linecap="round"></line></g><g style="stroke-width: 0.6;"></g></g></g><path d="M137 254.20000000000005 L137 285.79999999999995" stroke-linecap="round" style="fill: none; stroke: rgb(0, 0, 0); stroke-width: 1;"></path> <path d="M127 270.20000000000005 L137 270.20000000000005" stroke-linecap="round" style="fill: none; stroke: rgb(0, 0, 0); stroke-width: 1;"></path> <path d="M127 265.20000000000005 L127 275.20000000000005" stroke-linecap="round" style="fill: none; stroke: rgb(0, 0, 0); stroke-width: 2;"></path> <ellipse cx="144.5" cy="282.5" rx="2.5" ry="2.5" style="fill: none; stroke: rgb(0, 0, 0); stroke-width: 1;"></ellipse> <ellipse cx="144.5" cy="257.5" rx="2.5" ry="2.5" style="fill: none; stroke: rgb(0, 0, 0); stroke-width: 1;"></ellipse> <g transform="translate( 125 231.03759765625)"><text x="1" y="10" fill="#FF0000" style="pointer-events: none; font-size: 10px; font-family: Arial; font-weight: normal; font-style: normal; white-space: pre;"><tspan>Switch Button</tspan></text></g><g transform="translate( 125 301.03759765625)"><text x="1" y="10" fill="#FF0000" style="pointer-events: none; font-size: 10px; font-family: Arial; font-weight: normal; font-style: normal; white-space: pre;"><tspan>S1</tspan></text></g><path d="M146 178 L142 184" stroke-linecap="round" style="fill: none; stroke: rgb(0, 0, 0); stroke-width: 1;"></path> <path d="M122 175 L138 175" stroke-linecap="round" style="fill: none; stroke: rgb(0, 0, 0); stroke-width: 1;"></path> <path d="M122 190 L138 190" stroke-linecap="round" style="fill: none; stroke: rgb(0, 0, 0); stroke-width: 1;"></path> <path d="M130 190 L130 200" stroke-linecap="round" style="fill: none; stroke: rgb(0, 0, 0); stroke-width: 1;"></path> <path d="M138 175 L130 190" stroke-linecap="round" style="fill: none; stroke: rgb(0, 0, 0); stroke-width: 1;"></path> <path d="M130 190 L122 175" stroke-linecap="round" style="fill: none; stroke: rgb(0, 0, 0); stroke-width: 1;"></path> <path d="M139 181 L142 184" stroke-linecap="round" style="fill: none; stroke: rgb(0, 0, 0); stroke-width: 1;"></path> <path d="M146 178 L139 181" stroke-linecap="round" style="fill: none; stroke: rgb(0, 0, 0); stroke-width: 1;"></path> <path d="M145 179 L135 187" stroke-linecap="round" style="fill: none; stroke: rgb(0, 0, 0); stroke-width: 1;"></path> <path d="M130 165 L130 175" stroke-linecap="round" style="fill: none; stroke: rgb(0, 0, 0); stroke-width: 1;"></path> <path d="M144 180 L141 183" stroke-linecap="round" style="fill: none; stroke: rgb(0, 0, 0); stroke-width: 1;"></path> <path d="M143 180 L140 181" stroke-linecap="round" style="fill: none; stroke: rgb(0, 0, 0); stroke-width: 1;"></path> <path d="M140 181 L141 182" stroke-linecap="round" style="fill: none; stroke: rgb(0, 0, 0); stroke-width: 1;"></path> <g transform="translate( 155 166.03759765625)"><text x="1" y="10" fill="#FF0000" style="pointer-events: none; font-size: 10px; font-family: Arial; font-weight: normal; font-style: normal; white-space: pre;"><tspan>LED</tspan></text></g><g transform="translate( 155 178.03759765625)"><text x="1" y="10" fill="#FF0000" style="pointer-events: none; font-size: 10px; font-family: Arial; font-weight: normal; font-style: normal; white-space: pre;"><tspan>L1</tspan></text></g><path d="M236 178 L232 184" stroke-linecap="round" style="fill: none; stroke: rgb(0, 0, 0); stroke-width: 1;"></path> <path d="M212 175 L228 175" stroke-linecap="round" style="fill: none; stroke: rgb(0, 0, 0); stroke-width: 1;"></path> <path d="M212 190 L228 190" stroke-linecap="round" style="fill: none; stroke: rgb(0, 0, 0); stroke-width: 1;"></path> <path d="M220 190 L220 200" stroke-linecap="round" style="fill: none; stroke: rgb(0, 0, 0); stroke-width: 1;"></path> <path d="M228 175 L220 190" stroke-linecap="round" style="fill: none; stroke: rgb(0, 0, 0); stroke-width: 1;"></path> <path d="M220 190 L212 175" stroke-linecap="round" style="fill: none; stroke: rgb(0, 0, 0); stroke-width: 1;"></path> <path d="M229 181 L232 184" stroke-linecap="round" style="fill: none; stroke: rgb(0, 0, 0); stroke-width: 1;"></path> <path d="M236 178 L229 181" stroke-linecap="round" style="fill: none; stroke: rgb(0, 0, 0); stroke-width: 1;"></path> <path d="M235 179 L225 187" stroke-linecap="round" style="fill: none; stroke: rgb(0, 0, 0); stroke-width: 1;"></path> <path d="M220 165 L220 175" stroke-linecap="round" style="fill: none; stroke: rgb(0, 0, 0); stroke-width: 1;"></path> <path d="M234 180 L231 183" stroke-linecap="round" style="fill: none; stroke: rgb(0, 0, 0); stroke-width: 1;"></path> <path d="M233 180 L230 181" stroke-linecap="round" style="fill: none; stroke: rgb(0, 0, 0); stroke-width: 1;"></path> <path d="M230 181 L231 182" stroke-linecap="round" style="fill: none; stroke: rgb(0, 0, 0); stroke-width: 1;"></path> <g transform="translate( 245 166.03759765625)"><text x="1" y="10" fill="#FF0000" style="pointer-events: none; font-size: 10px; font-family: Arial; font-weight: normal; font-style: normal; white-space: pre;"><tspan>LED</tspan></text></g><g transform="translate( 245 178.03759765625)"><text x="1" y="10" fill="#FF0000" style="pointer-events: none; font-size: 10px; font-family: Arial; font-weight: normal; font-style: normal; white-space: pre;"><tspan>L2</tspan></text></g><rect x="15" y="85" rx="0" ry="0" width="345" height="590" style="fill: none; stroke: rgb(0, 0, 0); stroke-width: 1;"></rect> <g transform="translate( 580 35.631591796875)"><text x="1" y="35" fill="#008020" style="pointer-events: none; font-size: 35px; font-family: Arial; font-weight: normal; font-style: normal; white-space: pre;"><tspan>Armoire</tspan></text></g><rect x="578" y="68" width="4" height="4" style="stroke: red; stroke-width: 1; fill: none;"></rect><rect x="745" y="85" rx="0" ry="0" width="290" height="590" style="fill: none; stroke: rgb(0, 0, 0); stroke-width: 1;"></rect> <g transform="rotate(90 270,355)"><line x1="270" y1="355" x2="300" y2="355" stroke-linecap="round"></line><g style="fill: none; stroke: black; stroke-width: 1;"><g style="stroke: rgb(192, 64, 64);"><line x1="270" y1="355" x2="300" y2="355" stroke-linecap="round"></line></g><g style="stroke-width: 0.6;"></g></g></g><g transform="rotate(270 270,455)"><line x1="270" y1="455" x2="300" y2="455" stroke-linecap="round"></line><g style="fill: none; stroke: black; stroke-width: 1;"><g style="stroke: rgb(192, 64, 64);"><line x1="270" y1="455" x2="300" y2="455" stroke-linecap="round"></line></g><g style="stroke-width: 0.6;"></g></g></g><path d="M250 380 L270 425" stroke-linecap="round" style="fill: none; stroke: rgb(0, 0, 0); stroke-width: 1;"></path> <path d="M250 405 L260 405" stroke-linecap="round" style="fill: none; stroke: rgb(0, 0, 0); stroke-width: 1;"></path> <path d="M230 405 L240 405" stroke-linecap="round" style="fill: none; stroke: rgb(0, 0, 0); stroke-width: 1;"></path> <path d="M235 395 L230 395 L230 415 L235 415" stroke-linecap="round" style="fill: none; stroke: rgb(0, 0, 0); stroke-width: 1;"></path> <g transform="translate( 275 416.03759765625)"><text x="1" y="10" fill="#FF0000" style="pointer-events: none; font-size: 10px; font-family: Arial; font-weight: normal; font-style: normal; white-space: pre;"><tspan>Push Button NO</tspan></text></g><g transform="translate( 275 428.03759765625)"><text x="1" y="10" fill="#FF0000" style="pointer-events: none; font-size: 10px; font-family: Arial; font-weight: normal; font-style: normal; white-space: pre;"><tspan>R1</tspan></text></g><g transform="rotate(90 145,495)"><line x1="145" y1="495" x2="175" y2="495" stroke-linecap="round"></line><g style="fill: none; stroke: black; stroke-width: 1;"><g style="stroke: rgb(192, 64, 64);"><line x1="145" y1="495" x2="175" y2="495" stroke-linecap="round"></line></g><g style="stroke-width: 0.6;"></g></g></g><g transform="rotate(270 145,595)"><line x1="145" y1="595" x2="175" y2="595" stroke-linecap="round"></line><g style="fill: none; stroke: black; stroke-width: 1;"><g style="stroke: rgb(192, 64, 64);"><line x1="145" y1="595" x2="175" y2="595" stroke-linecap="round"></line></g><g style="stroke-width: 0.6;"></g></g></g><path d="M125 520 L145 565" stroke-linecap="round" style="fill: none; stroke: rgb(0, 0, 0); stroke-width: 1;"></path> <path d="M125 545 L135 545" stroke-linecap="round" style="fill: none; stroke: rgb(0, 0, 0); stroke-width: 1;"></path> <path d="M105 545 L115 545" stroke-linecap="round" style="fill: none; stroke: rgb(0, 0, 0); stroke-width: 1;"></path> <path d="M110 535 L105 535 L105 555 L110 555" stroke-linecap="round" style="fill: none; stroke: rgb(0, 0, 0); stroke-width: 1;"></path> <g transform="translate( 150 556.03759765625)"><text x="1" y="10" fill="#FF0000" style="pointer-events: none; font-size: 10px; font-family: Arial; font-weight: normal; font-style: normal; white-space: pre;"><tspan>Push Button NO</tspan></text></g><g transform="translate( 150 568.03759765625)"><text x="1" y="10" fill="#FF0000" style="pointer-events: none; font-size: 10px; font-family: Arial; font-weight: normal; font-style: normal; white-space: pre;"><tspan>RE1</tspan></text></g><rect x="360" y="85" rx="0" ry="0" width="345" height="590" style="fill: none; stroke: rgb(0, 0, 0); stroke-width: 1;"></rect> <g transform="rotate(90 140,355)"><line x1="140" y1="355" x2="170" y2="355" stroke-linecap="round"></line><g style="fill: none; stroke: black; stroke-width: 1;"><g style="stroke: rgb(192, 64, 64);"><line x1="140" y1="355" x2="170" y2="355" stroke-linecap="round"></line></g><g style="stroke-width: 0.6;"></g></g></g><g transform="rotate(270 140,455)"><line x1="140" y1="455" x2="170" y2="455" stroke-linecap="round"></line><g style="fill: none; stroke: black; stroke-width: 1;"><g style="stroke: rgb(192, 64, 64);"><line x1="140" y1="455" x2="170" y2="455" stroke-linecap="round"></line></g><g style="stroke-width: 0.6;"></g></g></g><path d="M120 380 L140 425" stroke-linecap="round" style="fill: none; stroke: rgb(0, 0, 0); stroke-width: 1;"></path> <path d="M120 405 L130 405" stroke-linecap="round" style="fill: none; stroke: rgb(0, 0, 0); stroke-width: 1;"></path> <path d="M100 405 L110 405" stroke-linecap="round" style="fill: none; stroke: rgb(0, 0, 0); stroke-width: 1;"></path> <path d="M105 395 L100 395 L100 415 L105 415" stroke-linecap="round" style="fill: none; stroke: rgb(0, 0, 0); stroke-width: 1;"></path> <g transform="translate( 145 416.03759765625)"><text x="1" y="10" fill="#FF0000" style="pointer-events: none; font-size: 10px; font-family: Arial; font-weight: normal; font-style: normal; white-space: pre;"><tspan>Push Button NO</tspan></text></g><g transform="translate( 145 428.03759765625)"><text x="1" y="10" fill="#FF0000" style="pointer-events: none; font-size: 10px; font-family: Arial; font-weight: normal; font-style: normal; white-space: pre;"><tspan>D1</tspan></text></g><g transform="translate( 35 178.03759765625)"><text x="1" y="10" fill="#008020" style="pointer-events: none; font-size: 10px; font-family: Arial; font-weight: normal; font-style: normal; white-space: pre;"><tspan>12v DC --&gt;</tspan></text></g><rect x="33" y="188" width="4" height="4" style="stroke: red; stroke-width: 1; fill: none;"></rect><g transform="translate( 35 258.03759765625)"><text x="1" y="10" fill="#008020" style="pointer-events: none; font-size: 10px; font-family: Arial; font-weight: normal; font-style: normal; white-space: pre;"><tspan>5v DC --&gt;</tspan></text></g><rect x="33" y="268" width="4" height="4" style="stroke: red; stroke-width: 1; fill: none;"></rect><g transform="translate( 35 378.03759765625)"><text x="1" y="10" fill="#008020" style="pointer-events: none; font-size: 10px; font-family: Arial; font-weight: normal; font-style: normal; white-space: pre;"><tspan>5v DC --&gt;</tspan></text></g><rect x="33" y="388" width="4" height="4" style="stroke: red; stroke-width: 1; fill: none;"></rect><rect x="50" y="185" rx="0" ry="0" width="0" height="0" style="fill: rgb(255, 255, 175); stroke: rgb(0, 0, 255); stroke-width: 1;"></rect><g transform="translate( 50 186.45263671875)"></g><rect x="92.55699783440724" y="64.16299984865566" rx="0" ry="0" width="0" height="0" style="fill: rgb(255, 255, 175); stroke: rgb(0, 0, 255); stroke-width: 1;"></rect><g transform="translate( 92.55699783440724 65.61563656740566)"></g><g transform="translate( 290 98.03759765625)"><text x="1" y="10" fill="#008020" style="pointer-events: none; font-size: 10px; font-family: Arial; font-weight: normal; font-style: normal; white-space: pre;"><tspan>GROUPE 1</tspan></text></g><rect x="288" y="108" width="4" height="4" style="stroke: red; stroke-width: 1; fill: none;"></rect><g transform="rotate(270 485,295)"><line x1="485" y1="295" x2="495" y2="295" stroke-linecap="round"></line><g style="fill: none; stroke: black; stroke-width: 1;"><g style="stroke: rgb(192, 64, 64);"><line x1="485" y1="295" x2="495" y2="295" stroke-linecap="round"></line></g><g style="stroke-width: 0.6;"></g></g></g><g transform="rotate(90 485,245)"><line x1="485" y1="245" x2="495" y2="245" stroke-linecap="round"></line><g style="fill: none; stroke: black; stroke-width: 1;"><g style="stroke: rgb(192, 64, 64);"><line x1="485" y1="245" x2="495" y2="245" stroke-linecap="round"></line></g><g style="stroke-width: 0.6;"></g></g></g><path d="M477 254.20000000000005 L477 285.79999999999995" stroke-linecap="round" style="fill: none; stroke: rgb(0, 0, 0); stroke-width: 1;"></path> <path d="M467 270.20000000000005 L477 270.20000000000005" stroke-linecap="round" style="fill: none; stroke: rgb(0, 0, 0); stroke-width: 1;"></path> <path d="M467 265.20000000000005 L467 275.20000000000005" stroke-linecap="round" style="fill: none; stroke: rgb(0, 0, 0); stroke-width: 2;"></path> <ellipse cx="484.5" cy="282.5" rx="2.5" ry="2.5" style="fill: none; stroke: rgb(0, 0, 0); stroke-width: 1;"></ellipse> <ellipse cx="484.5" cy="257.5" rx="2.5" ry="2.5" style="fill: none; stroke: rgb(0, 0, 0); stroke-width: 1;"></ellipse> <g transform="translate( 465 231.03759765625)"><text x="1" y="10" fill="#FF0000" style="pointer-events: none; font-size: 10px; font-family: Arial; font-weight: normal; font-style: normal; white-space: pre;"><tspan>Switch Button</tspan></text></g><g transform="translate( 465 301.03759765625)"><text x="1" y="10" fill="#FF0000" style="pointer-events: none; font-size: 10px; font-family: Arial; font-weight: normal; font-style: normal; white-space: pre;"><tspan>S2</tspan></text></g><path d="M486 178 L482 184" stroke-linecap="round" style="fill: none; stroke: rgb(0, 0, 0); stroke-width: 1;"></path> <path d="M462 175 L478 175" stroke-linecap="round" style="fill: none; stroke: rgb(0, 0, 0); stroke-width: 1;"></path> <path d="M462 190 L478 190" stroke-linecap="round" style="fill: none; stroke: rgb(0, 0, 0); stroke-width: 1;"></path> <path d="M470 190 L470 200" stroke-linecap="round" style="fill: none; stroke: rgb(0, 0, 0); stroke-width: 1;"></path> <path d="M478 175 L470 190" stroke-linecap="round" style="fill: none; stroke: rgb(0, 0, 0); stroke-width: 1;"></path> <path d="M470 190 L462 175" stroke-linecap="round" style="fill: none; stroke: rgb(0, 0, 0); stroke-width: 1;"></path> <path d="M479 181 L482 184" stroke-linecap="round" style="fill: none; stroke: rgb(0, 0, 0); stroke-width: 1;"></path> <path d="M486 178 L479 181" stroke-linecap="round" style="fill: none; stroke: rgb(0, 0, 0); stroke-width: 1;"></path> <path d="M485 179 L475 187" stroke-linecap="round" style="fill: none; stroke: rgb(0, 0, 0); stroke-width: 1;"></path> <path d="M470 165 L470 175" stroke-linecap="round" style="fill: none; stroke: rgb(0, 0, 0); stroke-width: 1;"></path> <path d="M484 180 L481 183" stroke-linecap="round" style="fill: none; stroke: rgb(0, 0, 0); stroke-width: 1;"></path> <path d="M483 180 L480 181" stroke-linecap="round" style="fill: none; stroke: rgb(0, 0, 0); stroke-width: 1;"></path> <path d="M480 181 L481 182" stroke-linecap="round" style="fill: none; stroke: rgb(0, 0, 0); stroke-width: 1;"></path> <g transform="translate( 495 166.03759765625)"><text x="1" y="10" fill="#FF0000" style="pointer-events: none; font-size: 10px; font-family: Arial; font-weight: normal; font-style: normal; white-space: pre;"><tspan>LED</tspan></text></g><g transform="translate( 495 178.03759765625)"><text x="1" y="10" fill="#FF0000" style="pointer-events: none; font-size: 10px; font-family: Arial; font-weight: normal; font-style: normal; white-space: pre;"><tspan>L3</tspan></text></g><path d="M576 178 L572 184" stroke-linecap="round" style="fill: none; stroke: rgb(0, 0, 0); stroke-width: 1;"></path> <path d="M552 175 L568 175" stroke-linecap="round" style="fill: none; stroke: rgb(0, 0, 0); stroke-width: 1;"></path> <path d="M552 190 L568 190" stroke-linecap="round" style="fill: none; stroke: rgb(0, 0, 0); stroke-width: 1;"></path> <path d="M560 190 L560 200" stroke-linecap="round" style="fill: none; stroke: rgb(0, 0, 0); stroke-width: 1;"></path> <path d="M568 175 L560 190" stroke-linecap="round" style="fill: none; stroke: rgb(0, 0, 0); stroke-width: 1;"></path> <path d="M560 190 L552 175" stroke-linecap="round" style="fill: none; stroke: rgb(0, 0, 0); stroke-width: 1;"></path> <path d="M569 181 L572 184" stroke-linecap="round" style="fill: none; stroke: rgb(0, 0, 0); stroke-width: 1;"></path> <path d="M576 178 L569 181" stroke-linecap="round" style="fill: none; stroke: rgb(0, 0, 0); stroke-width: 1;"></path> <path d="M575 179 L565 187" stroke-linecap="round" style="fill: none; stroke: rgb(0, 0, 0); stroke-width: 1;"></path> <path d="M560 165 L560 175" stroke-linecap="round" style="fill: none; stroke: rgb(0, 0, 0); stroke-width: 1;"></path> <path d="M574 180 L571 183" stroke-linecap="round" style="fill: none; stroke: rgb(0, 0, 0); stroke-width: 1;"></path> <path d="M573 180 L570 181" stroke-linecap="round" style="fill: none; stroke: rgb(0, 0, 0); stroke-width: 1;"></path> <path d="M570 181 L571 182" stroke-linecap="round" style="fill: none; stroke: rgb(0, 0, 0); stroke-width: 1;"></path> <g transform="translate( 585 166.03759765625)"><text x="1" y="10" fill="#FF0000" style="pointer-events: none; font-size: 10px; font-family: Arial; font-weight: normal; font-style: normal; white-space: pre;"><tspan>LED</tspan></text></g><g transform="translate( 585 178.03759765625)"><text x="1" y="10" fill="#FF0000" style="pointer-events: none; font-size: 10px; font-family: Arial; font-weight: normal; font-style: normal; white-space: pre;"><tspan>L4</tspan></text></g><g transform="rotate(90 615,345)"><line x1="615" y1="345" x2="645" y2="345" stroke-linecap="round"></line><g style="fill: none; stroke: black; stroke-width: 1;"><g style="stroke: rgb(192, 64, 64);"><line x1="615" y1="345" x2="645" y2="345" stroke-linecap="round"></line></g><g style="stroke-width: 0.6;"></g></g></g><g transform="rotate(270 615,445)"><line x1="615" y1="445" x2="645" y2="445" stroke-linecap="round"></line><g style="fill: none; stroke: black; stroke-width: 1;"><g style="stroke: rgb(192, 64, 64);"><line x1="615" y1="445" x2="645" y2="445" stroke-linecap="round"></line></g><g style="stroke-width: 0.6;"></g></g></g><path d="M595 370 L615 415" stroke-linecap="round" style="fill: none; stroke: rgb(0, 0, 0); stroke-width: 1;"></path> <path d="M595 395 L605 395" stroke-linecap="round" style="fill: none; stroke: rgb(0, 0, 0); stroke-width: 1;"></path> <path d="M575 395 L585 395" stroke-linecap="round" style="fill: none; stroke: rgb(0, 0, 0); stroke-width: 1;"></path> <path d="M580 385 L575 385 L575 405 L580 405" stroke-linecap="round" style="fill: none; stroke: rgb(0, 0, 0); stroke-width: 1;"></path> <g transform="translate( 620 406.03759765625)"><text x="1" y="10" fill="#FF0000" style="pointer-events: none; font-size: 10px; font-family: Arial; font-weight: normal; font-style: normal; white-space: pre;"><tspan>Push Button NO</tspan></text></g><g transform="translate( 620 418.03759765625)"><text x="1" y="10" fill="#FF0000" style="pointer-events: none; font-size: 10px; font-family: Arial; font-weight: normal; font-style: normal; white-space: pre;"><tspan>R2</tspan></text></g><g transform="rotate(90 485,495)"><line x1="485" y1="495" x2="515" y2="495" stroke-linecap="round"></line><g style="fill: none; stroke: black; stroke-width: 1;"><g style="stroke: rgb(192, 64, 64);"><line x1="485" y1="495" x2="515" y2="495" stroke-linecap="round"></line></g><g style="stroke-width: 0.6;"></g></g></g><g transform="rotate(270 485,595)"><line x1="485" y1="595" x2="515" y2="595" stroke-linecap="round"></line><g style="fill: none; stroke: black; stroke-width: 1;"><g style="stroke: rgb(192, 64, 64);"><line x1="485" y1="595" x2="515" y2="595" stroke-linecap="round"></line></g><g style="stroke-width: 0.6;"></g></g></g><path d="M465 520 L485 565" stroke-linecap="round" style="fill: none; stroke: rgb(0, 0, 0); stroke-width: 1;"></path> <path d="M465 545 L475 545" stroke-linecap="round" style="fill: none; stroke: rgb(0, 0, 0); stroke-width: 1;"></path> <path d="M445 545 L455 545" stroke-linecap="round" style="fill: none; stroke: rgb(0, 0, 0); stroke-width: 1;"></path> <path d="M450 535 L445 535 L445 555 L450 555" stroke-linecap="round" style="fill: none; stroke: rgb(0, 0, 0); stroke-width: 1;"></path> <g transform="translate( 490 556.03759765625)"><text x="1" y="10" fill="#FF0000" style="pointer-events: none; font-size: 10px; font-family: Arial; font-weight: normal; font-style: normal; white-space: pre;"><tspan>Push Button NO</tspan></text></g><g transform="translate( 490 568.03759765625)"><text x="1" y="10" fill="#FF0000" style="pointer-events: none; font-size: 10px; font-family: Arial; font-weight: normal; font-style: normal; white-space: pre;"><tspan>RE2</tspan></text></g><g transform="rotate(90 485,345)"><line x1="485" y1="345" x2="515" y2="345" stroke-linecap="round"></line><g style="fill: none; stroke: black; stroke-width: 1;"><g style="stroke: rgb(192, 64, 64);"><line x1="485" y1="345" x2="515" y2="345" stroke-linecap="round"></line></g><g style="stroke-width: 0.6;"></g></g></g><g transform="rotate(270 485,445)"><line x1="485" y1="445" x2="515" y2="445" stroke-linecap="round"></line><g style="fill: none; stroke: black; stroke-width: 1;"><g style="stroke: rgb(192, 64, 64);"><line x1="485" y1="445" x2="515" y2="445" stroke-linecap="round"></line></g><g style="stroke-width: 0.6;"></g></g></g><path d="M465 370 L485 415" stroke-linecap="round" style="fill: none; stroke: rgb(0, 0, 0); stroke-width: 1;"></path> <path d="M465 395 L475 395" stroke-linecap="round" style="fill: none; stroke: rgb(0, 0, 0); stroke-width: 1;"></path> <path d="M445 395 L455 395" stroke-linecap="round" style="fill: none; stroke: rgb(0, 0, 0); stroke-width: 1;"></path> <path d="M450 385 L445 385 L445 405 L450 405" stroke-linecap="round" style="fill: none; stroke: rgb(0, 0, 0); stroke-width: 1;"></path> <g transform="translate( 490 406.03759765625)"><text x="1" y="10" fill="#FF0000" style="pointer-events: none; font-size: 10px; font-family: Arial; font-weight: normal; font-style: normal; white-space: pre;"><tspan>Push Button NO</tspan></text></g><g transform="translate( 490 418.03759765625)"><text x="1" y="10" fill="#FF0000" style="pointer-events: none; font-size: 10px; font-family: Arial; font-weight: normal; font-style: normal; white-space: pre;"><tspan>D2</tspan></text></g><g transform="translate( 375 178.03759765625)"><text x="1" y="10" fill="#008020" style="pointer-events: none; font-size: 10px; font-family: Arial; font-weight: normal; font-style: normal; white-space: pre;"><tspan>12v DC --&gt;</tspan></text></g><rect x="373" y="188" width="4" height="4" style="stroke: red; stroke-width: 1; fill: none;"></rect><g transform="translate( 375 258.03759765625)"><text x="1" y="10" fill="#008020" style="pointer-events: none; font-size: 10px; font-family: Arial; font-weight: normal; font-style: normal; white-space: pre;"><tspan>5v DC --&gt;</tspan></text></g><rect x="373" y="268" width="4" height="4" style="stroke: red; stroke-width: 1; fill: none;"></rect><g transform="translate( 375 378.03759765625)"><text x="1" y="10" fill="#008020" style="pointer-events: none; font-size: 10px; font-family: Arial; font-weight: normal; font-style: normal; white-space: pre;"><tspan>5v DC --&gt;</tspan></text></g><rect x="373" y="388" width="4" height="4" style="stroke: red; stroke-width: 1; fill: none;"></rect><rect x="390" y="185" rx="0" ry="0" width="0" height="0" style="fill: rgb(255, 255, 175); stroke: rgb(0, 0, 255); stroke-width: 1;"></rect><g transform="translate( 390 186.45263671875)"></g><g transform="translate( 640 98.03759765625)"><text x="1" y="10" fill="#008020" style="pointer-events: none; font-size: 10px; font-family: Arial; font-weight: normal; font-style: normal; white-space: pre;"><tspan>GROUPE 2</tspan></text></g><rect x="638" y="108" width="4" height="4" style="stroke: red; stroke-width: 1; fill: none;"></rect><g transform="translate( 755 93.03759765625)"><text x="1" y="10" fill="#008020" style="pointer-events: none; font-size: 10px; font-family: Arial; font-weight: normal; font-style: normal; white-space: pre;"><tspan>L1 -&gt; groupe 1 auto LED</tspan></text></g><rect x="753" y="103" width="4" height="4" style="stroke: red; stroke-width: 1; fill: none;"></rect><g transform="translate( 755 123.03759765625)"><text x="1" y="10" fill="#008020" style="pointer-events: none; font-size: 10px; font-family: Arial; font-weight: normal; font-style: normal; white-space: pre;"><tspan>L3 -&gt; groupe 2 auto LED</tspan></text></g><rect x="753" y="133" width="4" height="4" style="stroke: red; stroke-width: 1; fill: none;"></rect><g transform="translate( 755 138.03759765625)"><text x="1" y="10" fill="#008020" style="pointer-events: none; font-size: 10px; font-family: Arial; font-weight: normal; font-style: normal; white-space: pre;"><tspan>L4 -&gt; groupe 2 manu LED</tspan></text></g><rect x="753" y="148" width="4" height="4" style="stroke: red; stroke-width: 1; fill: none;"></rect><g transform="translate( 755 168.03759765625)"><text x="1" y="10" fill="#008020" style="pointer-events: none; font-size: 10px; font-family: Arial; font-weight: normal; font-style: normal; white-space: pre;"><tspan>S1 -&gt; switch groupe 1 to manu</tspan></text></g><rect x="753" y="178" width="4" height="4" style="stroke: red; stroke-width: 1; fill: none;"></rect><g transform="translate( 755 183.03759765625)"><text x="1" y="10" fill="#008020" style="pointer-events: none; font-size: 10px; font-family: Arial; font-weight: normal; font-style: normal; white-space: pre;"><tspan>S2 -&gt; switch groupe 2 to manu</tspan></text></g><rect x="753" y="193" width="4" height="4" style="stroke: red; stroke-width: 1; fill: none;"></rect><g transform="translate( 753.7781463301853 106.99657162236483)"><text x="1" y="10" fill="#008020" style="pointer-events: none; font-size: 10px; font-family: Arial; font-weight: normal; font-style: normal; white-space: pre;"><tspan>L2 -&gt; groupe 1 manu LED</tspan></text></g><rect x="751.7781463301853" y="116.95897396611483" width="4" height="4" style="stroke: red; stroke-width: 1; fill: none;"></rect></g></svg>